<?xml version="1.0" encoding="utf-8"?>
<!-- Generator: Adobe Illustrator 18.1.1, SVG Export Plug-In . SVG Version: 6.00 Build 0)  -->
<svg version="1.1" xmlns="http://www.w3.org/2000/svg" xmlns:xlink="http://www.w3.org/1999/xlink" x="0px" y="0px"
	 viewBox="0 0 300 300" enable-background="new 0 0 300 300" xml:space="preserve">
<symbol  id="Logo_Light" viewBox="-100 -100 200 200">
	<g id="Logo_1_">
		<path fill="#FFFFFF" d="M0,83.3C-46,83.3-83.3,46-83.3,0S-46-83.3,0-83.3S83.3-46,83.3,0S46,83.3,0,83.3z M-52.4,23.1l18.6,18.7
			c0.9,0.9,2.2,1.5,3.5,1.5h19.4c1.3,0,2.6-0.6,3.6-1.5l0.9-0.9c2-2,2-5.1,0-7.1l-4.7-4.7c-2-2-2-5.1,0-7.1l1.8-1.8
			c1.9-1.9,1.9-5.1,0-7.1l-4.7-4.7c-1.9-2-5.1-2-7.1,0l-1.8,1.8c-2,1.9-5.1,1.9-7.1,0l-4.7-4.7c-2-1.9-5.1-1.9-7.1,0l-10.6,10.6
			C-54.4,18-54.4,21.2-52.4,23.1z M40.7-37L36-41.7c-1.9-2-5.1-2-7.1,0L9.4-22.2c-1.9,1.9-1.9,5.1,0,7.1l4.7,4.7
			c1.9,1.9,5.1,1.9,7.1,0l19.5-19.5C42.6-31.9,42.6-35,40.7-37z M52.4,16.1L41.8,5.5c-1.9-1.9-5.1-1.9-7.1,0l-4.7,4.7
			c-2,1.9-5.1,1.9-7.1,0l-51.8-51.9c-2-2-5.1-2-7.1,0l-4.7,4.7c-1.9,2-1.9,5.1,0,7.1L11.2,22c2,1.9,2,5.1,0,7.1l-4.7,4.7
			c-2,2-2,5.1,0,7.1l0.9,1c1,0.9,2.2,1.5,3.6,1.5h19.4c1.3,0,2.6-0.6,3.5-1.5l18.6-18.6C54.4,21.2,54.4,18,52.4,16.1z"/>
		<path fill="#FFFFFF" d="M0,100c-55.2,0-100-44.8-100-100S-55.2-100,0-100S100-55.2,100,0S55.2,100,0,100z M0-91.7
			c-50.6,0-91.7,41-91.7,91.7s41,91.7,91.7,91.7S91.7,50.6,91.7,0S50.6-91.7,0-91.7z"/>
	</g>
</symbol>
<g id="Logo">
	<g id="New_Symbol">
		<g id="Logo_Dark">
			<g>
				<path fill="#FFFFFF" d="M150,2c39.5,0,76.7,15.4,104.7,43.3c28,28,43.3,65.1,43.3,104.7s-15.4,76.7-43.3,104.7
					c-28,28-65.1,43.3-104.7,43.3s-76.7-15.4-104.7-43.3C17.4,226.7,2,189.5,2,150S17.4,73.3,45.3,45.3C73.3,17.4,110.5,2,150,2
					 M150,0C67.2,0,0,67.2,0,150s67.2,150,150,150s150-67.2,150-150S232.8,0,150,0L150,0z"/>
			</g>
			<path fill="none" stroke="#FFFFFF" stroke-width="2" stroke-miterlimit="10" d="M216.1,210.1l-7.7,7.7c-3.2,3.2-8.3,3.2-11.5,0
				l-31.6-31.6c-3.2-3.2-3.2-8.3,0-11.5l7.7-7.7c3.2-3.2,8.3-3.2,11.5,0l31.6,31.6C219.3,201.8,219.3,206.9,216.1,210.1z"/>
			<path fill="none" stroke="#FFFFFF" stroke-width="2" stroke-miterlimit="10" d="M131.8,102.9c-3.2,3.2-3.2,8.3,0,11.5l2.9,2.9
				c3.2,3.2,3.2,8.3,0,11.5l-7.7,7.6c-3.2,3.2-8.3,3.2-11.5,0l-2.9-2.9c-3.2-3.2-8.3-3.2-11.5,0l-7.7,7.7c-3.2,3.2-8.3,3.2-11.5,0
				l-17.3-17.2c-3.2-3.2-3.2-8.3,0-11.5L95,83.8c1.5-1.5,3.6-0.8,5.8-0.8h31.5c2.2,0,4.2-0.7,5.8,0.8l1.4,0.7
				c3.2,3.2,3.2,7.9,0,11.1L131.8,102.9z"/>
			<path fill="none" stroke="#FFFFFF" stroke-width="2" stroke-miterlimit="10" d="M235.2,123.9L218,141.1c-3.2,3.2-8.3,3.2-11.5,0
				l-7.7-7.7c-3.2-3.2-8.3-3.2-11.5,0l-84.3,84.3c-3.2,3.2-8.3,3.2-11.5,0l-7.7-7.7c-3.2-3.2-3.2-8.3,0-11.5l84.3-84.3
				c3.2-3.2,3.2-8.3,0-11.5l-7.7-7.7c-3.2-3.2-3.2-8.3,0-11.5l1.4,0.1c1.5-1.5,3.6-0.8,5.8-0.8h31.5c2.2,0,4.2-0.7,5.8,0.8
				l30.2,29.4C238.4,116.4,238.4,120.8,235.2,123.9z"/>
		</g>
	</g>
	
		<use xlink:href="#Logo_Light"  width="200" height="200" x="-100" y="-100" transform="matrix(1 0 0 -1 550 150)" overflow="visible"/>
</g>
<g id="Comments">
	<rect y="340" fill="none" width="700" height="122"/>
	<text transform="matrix(1 0 0 1 29.2803 365.5596)"><tspan x="0" y="0" font-family="'MyriadPro-Bold'" font-size="36">DO NOT MODIFY WITHOUT PERMISSION</tspan><tspan x="21.7" y="28.8" font-family="'MyriadPro-Regular'" font-size="24">Maintain a padding on all sides 1/4th of the logo’s diameter.</tspan><tspan x="48.1" y="57.6" font-family="'MyriadPro-Regular'" font-size="24">Use the dark logo on light backgrounds and vice versa.</tspan><tspan x="63.6" y="86.4" font-family="'MyriadPro-Regular'" font-size="24">Do not use any alternate colors without permission.</tspan></text>
</g>
</svg>
