<?xml version="1.0" encoding="utf-8"?>
<!-- Generator: Adobe Illustrator 18.1.1, SVG Export Plug-In . SVG Version: 6.00 Build 0)  -->
<svg version="1.1" xmlns="http://www.w3.org/2000/svg" xmlns:xlink="http://www.w3.org/1999/xlink" x="0px" y="0px"
	 viewBox="0 0 200 200" enable-background="new 0 0 200 200" xml:space="preserve">
<symbol  id="Logo_Light" viewBox="-100 -100 200 200">
	<g id="Logo_1_">
		<path fill="#FFFFFF" d="M0,83.3C-46,83.3-83.3,46-83.3,0S-46-83.3,0-83.3S83.3-46,83.3,0S46,83.3,0,83.3z M-52.4,23.1l18.6,18.7
			c0.9,0.9,2.2,1.5,3.5,1.5h19.4c1.3,0,2.6-0.6,3.6-1.5l0.9-0.9c2-2,2-5.1,0-7.1l-4.7-4.7c-2-2-2-5.1,0-7.1l1.8-1.8
			c1.9-1.9,1.9-5.1,0-7.1l-4.7-4.7c-1.9-2-5.1-2-7.1,0l-1.8,1.8c-2,1.9-5.1,1.9-7.1,0l-4.7-4.7c-2-1.9-5.1-1.9-7.1,0l-10.6,10.6
			C-54.4,18-54.4,21.2-52.4,23.1z M40.7-37L36-41.7c-1.9-2-5.1-2-7.1,0L9.4-22.2c-1.9,1.9-1.9,5.1,0,7.1l4.7,4.7
			c1.9,1.9,5.1,1.9,7.1,0l19.5-19.5C42.6-31.9,42.6-35,40.7-37z M52.4,16.1L41.8,5.5c-1.9-1.9-5.1-1.9-7.1,0l-4.7,4.7
			c-2,1.9-5.1,1.9-7.1,0l-51.8-51.9c-2-2-5.1-2-7.1,0l-4.7,4.7c-1.9,2-1.9,5.1,0,7.1L11.2,22c2,1.9,2,5.1,0,7.1l-4.7,4.7
			c-2,2-2,5.1,0,7.1l0.9,1c1,0.9,2.2,1.5,3.6,1.5h19.4c1.3,0,2.6-0.6,3.5-1.5l18.6-18.6C54.4,21.2,54.4,18,52.4,16.1z"/>
		<path fill="#FFFFFF" d="M0,100c-55.2,0-100-44.8-100-100S-55.2-100,0-100S100-55.2,100,0S55.2,100,0,100z M0-91.7
			c-50.6,0-91.7,41-91.7,91.7s41,91.7,91.7,91.7S91.7,50.6,91.7,0S50.6-91.7,0-91.7z"/>
	</g>
</symbol>
<g id="Logo">
	<g id="Logo_Dark">
		<path fill="#FFFFFF" d="M100,0C44.8,0,0,44.8,0,100s44.8,100,100,100s100-44.8,100-100S155.2,0,100,0z M37.1,72.3l22.3-22.4
			c1.1-1.1,2.6-1.9,4.2-1.9h23.3c1.6,0,3.1,0.7,4.3,1.9l1.1,1.1c2.3,2.4,2.3,6.2,0,8.5l-5.7,5.7c-2.3,2.3-2.3,6.2,0,8.5l2.1,2.1
			c2.3,2.3,2.3,6.1,0,8.5L83,89.9c-2.3,2.4-6.1,2.4-8.5,0l-2.1-2.1c-2.3-2.3-6.1-2.3-8.5,0l-5.7,5.7c-2.3,2.3-6.1,2.3-8.5,0
			L37.1,80.7C34.7,78.4,34.7,74.6,37.1,72.3z M148.8,144.4l-5.7,5.7c-2.3,2.3-6.1,2.3-8.5,0l-23.3-23.3c-2.3-2.3-2.3-6.1,0-8.5
			l5.7-5.7c2.3-2.3,6.1-2.3,8.5,0l23.3,23.3C151.1,138.2,151.1,142,148.8,144.4z M162.9,80.7l-12.7,12.7c-2.3,2.3-6.1,2.3-8.5,0
			l-5.7-5.7c-2.3-2.3-6.1-2.3-8.5,0L65.4,150c-2.4,2.3-6.2,2.3-8.5,0l-5.7-5.7c-2.3-2.3-2.3-6.1,0-8.5l62.2-62.2
			c2.3-2.3,2.3-6.1,0-8.5l-5.7-5.7c-2.3-2.3-2.3-6.1,0-8.5l1.1-1.2c1.1-1.1,2.7-1.9,4.3-1.9h23.3c1.6,0,3.1,0.7,4.2,1.9l22.3,22.4
			C165.3,74.5,165.3,78.4,162.9,80.7z"/>
	</g>
	
		<use xlink:href="#Logo_Light"  width="200" height="200" x="-100" y="-100" transform="matrix(1 0 0 -1 500 100)" overflow="visible"/>
</g>
<g id="Comments">
	<rect x="-50" y="290" fill="none" width="700" height="122"/>
	<text transform="matrix(1 0 0 1 -20.7197 315.5596)"><tspan x="0" y="0" font-family="'MyriadPro-Bold'" font-size="36">DO NOT MODIFY WITHOUT PERMISSION</tspan><tspan x="21.7" y="28.8" font-family="'MyriadPro-Regular'" font-size="24">Maintain a padding on all sides 1/4th of the logo’s diameter.</tspan><tspan x="48.1" y="57.6" font-family="'MyriadPro-Regular'" font-size="24">Use the dark logo on light backgrounds and vice versa.</tspan><tspan x="63.6" y="86.4" font-family="'MyriadPro-Regular'" font-size="24">Do not use any alternate colors without permission.</tspan></text>
</g>
</svg>
